<svg xmlns="http://www.w3.org/2000/svg" viewBox="0 0 640 360" width="640" height="360" role="img" aria-label="ncaacomp">
  <defs>
    <linearGradient id="wash" x1="0" y1="0" x2="1" y2="1">
      <stop offset="0" stop-color="#faf9f6"/>
      <stop offset="1" stop-color="#e7e9ec"/>
    </linearGradient>
    <pattern id="grid" width="32" height="32" patternUnits="userSpaceOnUse">
      <path d="M32 0H0V32" fill="none" stroke="#17304f" stroke-opacity="0.06" stroke-width="1"/>
    </pattern>
  </defs>
  <rect width="640" height="360" fill="#f2f1ec"/>
  <rect width="640" height="360" fill="url(#wash)"/>
  <rect width="640" height="360" fill="url(#grid)"/>
  <g><path d="M52 40H108V80H52" fill="none" stroke="#17304f" stroke-opacity="0.2" stroke-width="1"/><line x1="108" y1="60" x2="126" y2="60" stroke="#17304f" stroke-opacity="0.2" stroke-width="1"/><path d="M52 120H108V160H52" fill="none" stroke="#17304f" stroke-opacity="0.2" stroke-width="1"/><line x1="108" y1="140" x2="126" y2="140" stroke="#17304f" stroke-opacity="0.2" stroke-width="1"/><path d="M52 200H108V240H52" fill="none" stroke="#17304f" stroke-opacity="0.2" stroke-width="1"/><line x1="108" y1="220" x2="126" y2="220" stroke="#17304f" stroke-opacity="0.2" stroke-width="1"/><path d="M52 280H108V320H52" fill="none" stroke="#17304f" stroke-opacity="0.2" stroke-width="1"/><line x1="108" y1="300" x2="126" y2="300" stroke="#17304f" stroke-opacity="0.2" stroke-width="1"/><path d="M126 60H182V140H126" fill="none" stroke="#17304f" stroke-opacity="0.31" stroke-width="1.4"/><line x1="182" y1="100" x2="200" y2="100" stroke="#17304f" stroke-opacity="0.31" stroke-width="1.4"/><path d="M126 220H182V300H126" fill="none" stroke="#17304f" stroke-opacity="0.31" stroke-width="1.4"/><line x1="182" y1="260" x2="200" y2="260" stroke="#17304f" stroke-opacity="0.31" stroke-width="1.4"/><path d="M200 100H256V260H200" fill="none" stroke="#17304f" stroke-opacity="0.42" stroke-width="1.8"/><line x1="256" y1="180" x2="274" y2="180" stroke="#17304f" stroke-opacity="0.42" stroke-width="1.8"/><path d="M274 180H330V180H274" fill="none" stroke="#17304f" stroke-opacity="0.53" stroke-width="2.2"/><line x1="330" y1="180" x2="348" y2="180" stroke="#17304f" stroke-opacity="0.53" stroke-width="2.2"/><circle cx="354" cy="180" r="11" fill="#2c6a51" fill-opacity="0.9"/><circle cx="354" cy="180" r="21" fill="none" stroke="#2c6a51" stroke-opacity="0.35" stroke-width="1.5"/></g>
  <rect x="0.5" y="0.5" width="639" height="359" fill="none" stroke="#0e1a2b" stroke-opacity="0.1"/>
</svg>
