<!-- PLACEHOLDER — TODO(xander): replace with real 16:9 artwork. -->
<svg xmlns="http://www.w3.org/2000/svg" viewBox="0 0 640 360" width="640" height="360" role="img" aria-label="SaamaProblem">
  <defs>
    <linearGradient id="w" x1="1" y1="0" x2="0" y2="1">
      <stop offset="0" stop-color="#5EC962" stop-opacity="0.30"/>
      <stop offset="0.55" stop-color="#5EC962" stop-opacity="0.06"/>
      <stop offset="1" stop-color="#5EC962" stop-opacity="0"/>
    </linearGradient>
    <pattern id="g" width="40" height="40" patternUnits="userSpaceOnUse">
      <path d="M40 0H0V40" fill="none" stroke="#A796E0" stroke-opacity="0.07" stroke-width="1"/>
    </pattern>
  </defs>
  <rect width="640" height="360" fill="#0F0C1A"/>
  <rect width="640" height="360" fill="url(#g)"/>
  <rect width="640" height="360" fill="url(#w)"/>
  <circle cx="49.8" cy="80.4" r="2.8" fill="#5EC962" opacity="0.52"/>
  <circle cx="438.1" cy="237.7" r="4.3" fill="#5EC962" opacity="0.8"/>
  <circle cx="49.8" cy="166" r="1.8" fill="#5EC962" opacity="0.33"/>
  <circle cx="526.2" cy="283.3" r="2.8" fill="#5EC962" opacity="0.72"/>
  <circle cx="160.4" cy="51" r="1.7" fill="#5EC962" opacity="0.24"/>
  <circle cx="443" cy="292.5" r="3.5" fill="#5EC962" opacity="0.54"/>
  <circle cx="196.6" cy="80.2" r="3.1" fill="#5EC962" opacity="0.7"/>
  <circle cx="570.1" cy="242.5" r="3.5" fill="#5EC962" opacity="0.57"/>
  <circle cx="182.3" cy="99" r="3.4" fill="#5EC962" opacity="0.45"/>
  <circle cx="443.9" cy="153.9" r="4.2" fill="#5EC962" opacity="0.64"/>
  <circle cx="182.9" cy="182.6" r="3.9" fill="#5EC962" opacity="0.48"/>
  <circle cx="524" cy="287.7" r="1.5" fill="#5EC962" opacity="0.47"/>
  <circle cx="160.3" cy="185.1" r="2.6" fill="#5EC962" opacity="0.28"/>
  <circle cx="418" cy="267.8" r="2.8" fill="#5EC962" opacity="0.2"/>
  <circle cx="155" cy="179.4" r="3.8" fill="#5EC962" opacity="0.74"/>
  <circle cx="422.1" cy="157.7" r="1.7" fill="#5EC962" opacity="0.4"/>
  <circle cx="71.4" cy="128.6" r="3.1" fill="#5EC962" opacity="0.33"/>
  <circle cx="462.2" cy="150.7" r="3.6" fill="#5EC962" opacity="0.51"/>
  <circle cx="79.3" cy="105.6" r="2.5" fill="#5EC962" opacity="0.34"/>
  <circle cx="446.1" cy="174.1" r="4.6" fill="#5EC962" opacity="0.7"/>
  <circle cx="78.8" cy="58.2" r="2.1" fill="#5EC962" opacity="0.74"/>
  <circle cx="455.3" cy="224.4" r="3.2" fill="#5EC962" opacity="0.73"/>
  <circle cx="216.7" cy="137.7" r="4.2" fill="#5EC962" opacity="0.35"/>
  <circle cx="463.4" cy="291.9" r="3.5" fill="#5EC962" opacity="0.57"/>
  <circle cx="193.4" cy="109.6" r="2.5" fill="#5EC962" opacity="0.2"/>
  <circle cx="486.5" cy="270.8" r="1.9" fill="#5EC962" opacity="0.52"/>
  <circle cx="94" cy="176.4" r="1.2" fill="#5EC962" opacity="0.57"/>
  <circle cx="492.1" cy="179.9" r="4.1" fill="#5EC962" opacity="0.41"/>
  <circle cx="221.7" cy="186.6" r="3.8" fill="#5EC962" opacity="0.78"/>
  <circle cx="567.9" cy="184.1" r="1.6" fill="#5EC962" opacity="0.55"/>
  <circle cx="233.4" cy="143.6" r="2.4" fill="#5EC962" opacity="0.58"/>
  <circle cx="440.7" cy="209" r="2.1" fill="#5EC962" opacity="0.3"/>
  <circle cx="185.8" cy="158.7" r="2.9" fill="#5EC962" opacity="0.65"/>
  <circle cx="565.7" cy="288.4" r="2.7" fill="#5EC962" opacity="0.38"/>
  <circle cx="218.6" cy="149.7" r="3.5" fill="#5EC962" opacity="0.4"/>
  <circle cx="509" cy="289.1" r="2.8" fill="#5EC962" opacity="0.59"/>
  <circle cx="196.2" cy="120.7" r="2.5" fill="#5EC962" opacity="0.39"/>
  <circle cx="453.1" cy="253" r="3.9" fill="#5EC962" opacity="0.49"/>
  <circle cx="106.5" cy="161.7" r="1.4" fill="#5EC962" opacity="0.64"/>
  <circle cx="500" cy="227.6" r="2.6" fill="#5EC962" opacity="0.69"/>
  <circle cx="166.4" cy="167.9" r="4.3" fill="#5EC962" opacity="0.59"/>
  <circle cx="550.5" cy="159.4" r="3.1" fill="#5EC962" opacity="0.77"/>
  <circle cx="145.7" cy="108.9" r="1.5" fill="#5EC962" opacity="0.26"/>
  <circle cx="522.6" cy="261.7" r="1.5" fill="#5EC962" opacity="0.19"/>
  <circle cx="86" cy="150.9" r="4.2" fill="#5EC962" opacity="0.58"/>
  <circle cx="420.9" cy="285" r="4.5" fill="#5EC962" opacity="0.18"/>
  <rect x="0" y="290" width="640" height="70" fill="#0F0C1A" opacity="0.55"/>
  <text x="34" y="322" font-family="'Anonymous Pro',monospace" font-size="27" font-weight="700" fill="#ECE9F7">SaamaProblem</text>
  <text x="34" y="341" font-family="'Anonymous Pro',monospace" font-size="12" fill="#948CB6">placeholder thumbnail</text>
</svg>